<mxfile host="app.diagrams.net" modified="2023-03-02T03:44:25.117Z" agent="5.0 (Windows NT 10.0; Win64; x64) AppleWebKit/537.36 (KHTML, like Gecko) Chrome/110.0.0.0 Safari/537.36" etag="goS8D382aXrBhHyrCjpK" version="20.8.23" type="github">
  <diagram id="C5RBs43oDa-KdzZeNtuy" name="Page-1">
    <mxGraphModel dx="1050" dy="549" grid="1" gridSize="10" guides="1" tooltips="1" connect="1" arrows="1" fold="1" page="1" pageScale="1" pageWidth="827" pageHeight="1169" math="0" shadow="0">
      <root>
        <mxCell id="WIyWlLk6GJQsqaUBKTNV-0" />
        <mxCell id="WIyWlLk6GJQsqaUBKTNV-1" parent="WIyWlLk6GJQsqaUBKTNV-0" />
        <mxCell id="hObsYkDjBwjovXERNkkq-0" value="process1" style="whiteSpace=wrap;html=1;aspect=fixed;" vertex="1" parent="WIyWlLk6GJQsqaUBKTNV-1">
          <mxGeometry x="90" y="70" width="90" height="90" as="geometry" />
        </mxCell>
        <mxCell id="hObsYkDjBwjovXERNkkq-1" value="process2" style="whiteSpace=wrap;html=1;aspect=fixed;" vertex="1" parent="WIyWlLk6GJQsqaUBKTNV-1">
          <mxGeometry x="90" y="200" width="80" height="80" as="geometry" />
        </mxCell>
        <mxCell id="hObsYkDjBwjovXERNkkq-2" value="process3" style="whiteSpace=wrap;html=1;aspect=fixed;" vertex="1" parent="WIyWlLk6GJQsqaUBKTNV-1">
          <mxGeometry x="90" y="340" width="80" height="80" as="geometry" />
        </mxCell>
        <mxCell id="hObsYkDjBwjovXERNkkq-18" style="edgeStyle=orthogonalEdgeStyle;shape=flexArrow;rounded=0;orthogonalLoop=1;jettySize=auto;html=1;entryX=1;entryY=0.5;entryDx=0;entryDy=0;" edge="1" parent="WIyWlLk6GJQsqaUBKTNV-1" source="hObsYkDjBwjovXERNkkq-4" target="hObsYkDjBwjovXERNkkq-1">
          <mxGeometry relative="1" as="geometry" />
        </mxCell>
        <mxCell id="hObsYkDjBwjovXERNkkq-4" value="queue_data" style="ellipse;whiteSpace=wrap;html=1;" vertex="1" parent="WIyWlLk6GJQsqaUBKTNV-1">
          <mxGeometry x="230" y="150" width="90" height="50" as="geometry" />
        </mxCell>
        <mxCell id="hObsYkDjBwjovXERNkkq-10" style="edgeStyle=orthogonalEdgeStyle;shape=flexArrow;rounded=0;orthogonalLoop=1;jettySize=auto;html=1;entryX=1;entryY=0.5;entryDx=0;entryDy=0;" edge="1" parent="WIyWlLk6GJQsqaUBKTNV-1" source="hObsYkDjBwjovXERNkkq-5" target="hObsYkDjBwjovXERNkkq-4">
          <mxGeometry relative="1" as="geometry" />
        </mxCell>
        <mxCell id="hObsYkDjBwjovXERNkkq-5" value="read_data" style="whiteSpace=wrap;html=1;aspect=fixed;" vertex="1" parent="WIyWlLk6GJQsqaUBKTNV-1">
          <mxGeometry x="390" y="70" width="90" height="90" as="geometry" />
        </mxCell>
        <mxCell id="hObsYkDjBwjovXERNkkq-8" value="" style="shape=link;html=1;rounded=0;" edge="1" parent="WIyWlLk6GJQsqaUBKTNV-1">
          <mxGeometry width="100" relative="1" as="geometry">
            <mxPoint x="215" y="109.5" as="sourcePoint" />
            <mxPoint x="315" y="109.5" as="targetPoint" />
          </mxGeometry>
        </mxCell>
        <mxCell id="hObsYkDjBwjovXERNkkq-20" style="edgeStyle=orthogonalEdgeStyle;shape=flexArrow;rounded=0;orthogonalLoop=1;jettySize=auto;html=1;entryX=1;entryY=0.5;entryDx=0;entryDy=0;" edge="1" parent="WIyWlLk6GJQsqaUBKTNV-1" source="hObsYkDjBwjovXERNkkq-15" target="hObsYkDjBwjovXERNkkq-17">
          <mxGeometry relative="1" as="geometry" />
        </mxCell>
        <mxCell id="hObsYkDjBwjovXERNkkq-15" value="post_data" style="whiteSpace=wrap;html=1;aspect=fixed;" vertex="1" parent="WIyWlLk6GJQsqaUBKTNV-1">
          <mxGeometry x="390" y="200" width="90" height="90" as="geometry" />
        </mxCell>
        <mxCell id="hObsYkDjBwjovXERNkkq-16" value="" style="shape=link;html=1;rounded=0;" edge="1" parent="WIyWlLk6GJQsqaUBKTNV-1">
          <mxGeometry width="100" relative="1" as="geometry">
            <mxPoint x="225" y="250" as="sourcePoint" />
            <mxPoint x="325" y="250" as="targetPoint" />
          </mxGeometry>
        </mxCell>
        <mxCell id="hObsYkDjBwjovXERNkkq-22" style="edgeStyle=orthogonalEdgeStyle;shape=flexArrow;rounded=0;orthogonalLoop=1;jettySize=auto;html=1;entryX=1;entryY=0.5;entryDx=0;entryDy=0;" edge="1" parent="WIyWlLk6GJQsqaUBKTNV-1" source="hObsYkDjBwjovXERNkkq-17" target="hObsYkDjBwjovXERNkkq-2">
          <mxGeometry relative="1" as="geometry" />
        </mxCell>
        <mxCell id="hObsYkDjBwjovXERNkkq-17" value="queue_result" style="ellipse;whiteSpace=wrap;html=1;" vertex="1" parent="WIyWlLk6GJQsqaUBKTNV-1">
          <mxGeometry x="230" y="290" width="90" height="50" as="geometry" />
        </mxCell>
        <mxCell id="hObsYkDjBwjovXERNkkq-21" value="write_data" style="whiteSpace=wrap;html=1;aspect=fixed;" vertex="1" parent="WIyWlLk6GJQsqaUBKTNV-1">
          <mxGeometry x="390" y="335" width="90" height="90" as="geometry" />
        </mxCell>
        <mxCell id="hObsYkDjBwjovXERNkkq-23" value="" style="shape=link;html=1;rounded=0;" edge="1" parent="WIyWlLk6GJQsqaUBKTNV-1">
          <mxGeometry width="100" relative="1" as="geometry">
            <mxPoint x="230" y="390" as="sourcePoint" />
            <mxPoint x="330" y="390" as="targetPoint" />
          </mxGeometry>
        </mxCell>
      </root>
    </mxGraphModel>
  </diagram>
</mxfile>
